<svg xmlns="http://www.w3.org/2000/svg" width="200" height="32" viewBox="0 0 200 32">
  <defs>
    <linearGradient id="bgGrad" x1="0" y1="0" x2="0" y2="1">
      <stop offset="0%" stop-color="#5c1f1f"/>
      <stop offset="100%" stop-color="#8b2e2e"/>
    </linearGradient>
    <linearGradient id="goldGrad" x1="0" y1="0" x2="1" y2="0">
      <stop offset="0%" stop-color="#e8c66a"/>
      <stop offset="100%" stop-color="#c9a04a"/>
    </linearGradient>
    <filter id="soft" x="-20%" y="-20%" width="140%" height="140%">
      <feDropShadow dx="0" dy="1" stdDeviation="0.6" flood-color="#000" flood-opacity="0.35"/>
    </filter>
  </defs>

  <rect width="200" height="32" rx="6" fill="url(#bgGrad)"/>
  <rect x="0.5" y="0.5" width="199" height="31" rx="5.5" fill="none" stroke="url(#goldGrad)" stroke-width="1" opacity="0.8"/>

  <g stroke="url(#goldGrad)" stroke-width="1.3" fill="none" opacity="0.9">
    <path d="M14 16 C 10 13, 9 10, 11 6"/>
    <path d="M12 14 C 9 13, 7 12, 6 10"/>
    <path d="M13 11 C 10 10.5, 8.5 9.5, 7.5 8"/>
    <path d="M14 8 C 11.5 8, 10 7, 9.5 5.5"/>

    <path d="M14 16 C 10 19, 9 22, 11 26"/>
    <path d="M12 18 C 9 19, 7 20, 6 22"/>
    <path d="M13 21 C 10 21.5, 8.5 22.5, 7.5 24"/>
    <path d="M14 24 C 11.5 24, 10 25, 9.5 26.5"/>
  </g>

  <text x="46" y="20" font-family="Trajan Pro, Cinzel, Georgia, serif" font-size="12"
        fill="url(#goldGrad)" font-weight="bold" letter-spacing="1.5" filter="url(#soft)">SPQR</text>

  <line x1="86" y1="8" x2="86" y2="24" stroke="url(#goldGrad)" stroke-width="1" opacity="0.6"/>

  <text x="98" y="20" font-family="Trebuchet MS, Georgia, serif" font-size="11.5"
        fill="#f5e6c8" letter-spacing="0.3">Made by Human</text>
</svg>
